<svg width="54" height="54" viewBox="0 0 54 54" fill="none" xmlns="http://www.w3.org/2000/svg">
<rect width="54" height="54" rx="12" fill="#F7C103" fill-opacity="0.2"/>
<path d="M34.56 17.9685L26.9324 13.8645C26.1224 13.4325 25.164 13.4325 24.354 13.8645L16.7399 17.9685C16.1864 18.279 15.8354 18.873 15.8354 19.521C15.8354 20.1825 16.1729 20.7765 16.7399 21.0735L24.3675 25.1775C24.7725 25.3935 25.218 25.5015 25.65 25.5015C26.082 25.5015 26.5409 25.3935 26.9324 25.1775L34.56 21.0735C35.1135 20.7765 35.4645 20.1825 35.4645 19.521C35.4645 18.873 35.1135 18.279 34.56 17.9685Z" fill="#F7C103"/>
<path d="M23.112 26.6085L16.0245 23.0715C15.471 22.788 14.85 22.8285 14.3235 23.139C13.8105 23.463 13.5 24.0165 13.5 24.624V31.32C13.5 32.481 14.148 33.5205 15.1875 34.047L22.275 37.584C22.518 37.7055 22.788 37.773 23.058 37.773C23.3685 37.773 23.6925 37.6785 23.976 37.5165C24.489 37.1925 24.7995 36.639 24.7995 36.0315V29.3355C24.786 28.1745 24.138 27.135 23.112 26.6085Z" fill="#F7C103"/>
<path d="M37.8 24.624V27.945C37.152 27.756 36.4635 27.675 35.775 27.675C33.939 27.675 32.1435 28.3095 30.726 29.4435C28.782 30.969 27.675 33.2775 27.675 35.775C27.675 36.4365 27.756 37.098 27.9315 37.7325C27.729 37.7055 27.5265 37.6245 27.3375 37.503C26.8245 37.1925 26.514 36.639 26.514 36.0315V29.3355C26.514 28.1745 27.162 27.135 28.188 26.6085L35.2755 23.0715C35.829 22.788 36.45 22.8285 36.9765 23.139C37.4895 23.463 37.8 24.0165 37.8 24.624Z" fill="#F7C103"/>
<path d="M40.4731 31.9545C39.3661 30.591 37.6786 29.727 35.7751 29.727C34.3441 29.727 33.0211 30.2265 31.9816 31.0635C30.5776 32.1705 29.7001 33.885 29.7001 35.802C29.7001 36.936 30.0241 38.016 30.5776 38.934C30.9421 39.5415 31.4011 40.068 31.9411 40.5H31.9546C32.9941 41.364 34.3306 41.877 35.7751 41.877C37.3141 41.877 38.7046 41.31 39.7711 40.365C40.2436 39.96 40.6486 39.474 40.9726 38.934C41.5261 38.016 41.8501 36.936 41.8501 35.802C41.8501 34.344 41.3371 32.994 40.4731 31.9545ZM38.8261 35.046L35.5861 38.043C35.3971 38.2185 35.1406 38.313 34.8976 38.313C34.6411 38.313 34.3846 38.2185 34.1821 38.016L32.6836 36.5175C32.2921 36.126 32.2921 35.478 32.6836 35.0865C33.0751 34.695 33.7231 34.695 34.1146 35.0865L34.9246 35.8965L37.4491 33.561C37.8541 33.183 38.5021 33.21 38.8801 33.615C39.2716 34.0335 39.2446 34.668 38.8261 35.046Z" fill="#F7C103"/>
</svg>
