<svg width="54" height="54" viewBox="0 0 54 54" fill="none" xmlns="http://www.w3.org/2000/svg">
<rect width="54" height="54" rx="12" fill="#F7C103" fill-opacity="0.2"/>
<path d="M38.2861 27.9855C37.7866 27.9855 37.3681 27.6075 37.3141 27.108C36.9901 24.138 35.3971 21.465 32.9401 19.764C32.4946 19.4535 32.3866 18.846 32.6971 18.4005C33.0076 17.955 33.6151 17.847 34.0606 18.1575C36.9901 20.196 38.8801 23.382 39.2716 26.9055C39.3256 27.4455 38.9341 27.9315 38.3941 27.9855C38.3536 27.9855 38.3266 27.9855 38.2861 27.9855Z" fill="#F7C103"/>
<path d="M15.849 28.053C15.822 28.053 15.7815 28.053 15.7545 28.053C15.2145 27.999 14.823 27.513 14.877 26.973C15.2415 23.4495 17.1045 20.2635 20.007 18.2115C20.439 17.901 21.06 18.009 21.3705 18.441C21.681 18.8865 21.573 19.494 21.141 19.8045C18.711 21.5325 17.1315 24.2055 16.8345 27.162C16.7805 27.675 16.3485 28.053 15.849 28.053Z" fill="#F7C103"/>
<path d="M32.3866 39.285C30.7261 40.0815 28.9441 40.4865 27.0811 40.4865C25.1371 40.4865 23.2876 40.0545 21.5596 39.177C21.0736 38.9475 20.8846 38.3535 21.1276 37.8675C21.3571 37.3815 21.9511 37.1925 22.4371 37.422C23.2876 37.854 24.1921 38.151 25.1101 38.3265C26.3521 38.5695 27.6211 38.583 28.8631 38.367C29.7811 38.205 30.6856 37.9215 31.5226 37.5165C32.0221 37.287 32.6161 37.476 32.8321 37.9755C33.0751 38.4615 32.8861 39.0555 32.3866 39.285Z" fill="#F7C103"/>
<path d="M27.0675 13.5135C24.975 13.5135 23.2605 15.2145 23.2605 17.3205C23.2605 19.4265 24.9615 21.1275 27.0675 21.1275C29.1735 21.1275 30.8745 19.4265 30.8745 17.3205C30.8745 15.2145 29.1735 13.5135 27.0675 13.5135Z" fill="#F7C103"/>
<path d="M17.6175 29.5245C15.525 29.5245 13.8105 31.2255 13.8105 33.3315C13.8105 35.4375 15.5115 37.1385 17.6175 37.1385C19.7235 37.1385 21.4245 35.4375 21.4245 33.3315C21.4245 31.2255 19.71 29.5245 17.6175 29.5245Z" fill="#F7C103"/>
<path d="M36.3826 29.5245C34.2901 29.5245 32.5756 31.2255 32.5756 33.3315C32.5756 35.4375 34.2766 37.1385 36.3826 37.1385C38.4886 37.1385 40.1896 35.4375 40.1896 33.3315C40.1896 31.2255 38.4886 29.5245 36.3826 29.5245Z" fill="#F7C103"/>
</svg>
