<svg width="54" height="54" viewBox="0 0 54 54" fill="none" xmlns="http://www.w3.org/2000/svg">
<rect width="54" height="54" rx="12" fill="#F7C103" fill-opacity="0.2"/>
<path d="M31.0501 41.5125C30.6856 41.5125 30.3481 41.31 30.1726 40.9995C29.9971 40.6755 29.9971 40.2975 30.1861 39.9735L31.6036 37.611C31.8871 37.1385 32.5081 36.9765 32.9941 37.26C33.4801 37.5435 33.6286 38.1645 33.3451 38.6505L32.9806 39.258C36.7066 38.3805 39.5011 35.0325 39.5011 31.0365C39.5011 30.483 39.9601 30.024 40.5136 30.024C41.0671 30.024 41.5261 30.483 41.5261 31.0365C41.5126 36.8145 36.8146 41.5125 31.0501 41.5125Z" fill="#F7C103"/>
<path d="M13.5 23.9625C12.9465 23.9625 12.4875 23.5035 12.4875 22.95C12.4875 17.1855 17.1855 12.4875 22.95 12.4875C23.3145 12.4875 23.652 12.69 23.8275 13.0005C24.003 13.3245 24.0031 13.7025 23.8141 14.0265L22.3966 16.389C22.1131 16.8615 21.492 17.0235 21.006 16.7265C20.5335 16.443 20.3715 15.822 20.6685 15.336L21.033 14.7285C17.2935 15.606 14.5125 18.954 14.5125 22.95C14.5125 23.5035 14.0535 23.9625 13.5 23.9625Z" fill="#F7C103"/>
<path d="M32.9401 21.8835L27.8641 19.143C27.3241 18.8595 26.6896 18.8595 26.1496 19.143L21.0601 21.8835C20.6956 22.086 20.4661 22.4775 20.4661 22.9095C20.4661 23.355 20.6956 23.7465 21.0601 23.949L26.1361 26.6895C26.4061 26.838 26.7031 26.9055 27.0001 26.9055C27.2971 26.9055 27.5941 26.838 27.8641 26.6895L32.9401 23.949C33.3046 23.7465 33.5341 23.355 33.5341 22.9095C33.5341 22.4775 33.3046 22.086 32.9401 21.8835Z" fill="#F7C103"/>
<path d="M25.299 27.6345L20.574 25.272C20.2095 25.0965 19.791 25.11 19.44 25.326C19.1025 25.542 18.9 25.9065 18.9 26.3115V30.78C18.9 31.5495 19.332 32.2515 20.0205 32.589L24.7455 34.9515C24.9075 35.0325 25.083 35.073 25.272 35.073C25.488 35.073 25.6905 35.019 25.8795 34.8975C26.2305 34.6815 26.433 34.317 26.433 33.912V29.4435C26.4195 28.674 26.001 27.9855 25.299 27.6345Z" fill="#F7C103"/>
<path d="M34.5465 25.326C34.1955 25.11 33.777 25.0965 33.4125 25.272L28.6875 27.6345C27.999 27.9855 27.567 28.674 27.567 29.4435V33.912C27.567 34.317 27.7695 34.6815 28.1205 34.8975C28.3095 35.019 28.512 35.073 28.728 35.073C28.9035 35.073 29.079 35.0325 29.2545 34.9515L33.9795 32.589C34.668 32.238 35.1 31.5495 35.1 30.78V26.3115C35.1 25.9065 34.8975 25.542 34.5465 25.326Z" fill="#F7C103"/>
</svg>
