<svg width="54" height="54" viewBox="0 0 54 54" fill="none" xmlns="http://www.w3.org/2000/svg">
<rect width="54" height="54" rx="12" fill="#F7C103" fill-opacity="0.2"/>
<path d="M37.125 20.925L35.1135 22.9365L31.0635 18.8865L33.075 16.875C33.642 16.308 34.371 16.038 35.1 16.038C35.829 16.038 36.558 16.308 37.125 16.875C38.2455 17.9955 38.2455 19.8045 37.125 20.925Z" fill="#F7C103"/>
<path d="M34.1684 23.895L19.5749 38.475C18.4544 39.5955 16.6454 39.5955 15.5249 38.475C14.4044 37.3545 14.4044 35.5455 15.5249 34.425L30.1184 19.845L34.1684 23.895Z" fill="#F7C103"/>
<path d="M24.2326 15.525L24.7861 13.6485C24.8401 13.473 24.7861 13.284 24.6646 13.149C24.5431 13.014 24.3271 12.96 24.1516 13.014L22.2751 13.5675L20.3986 13.014C20.2231 12.96 20.0341 13.014 19.8991 13.1355C19.7641 13.2705 19.7236 13.4595 19.7776 13.635L20.3176 15.525L19.7641 17.4015C19.7101 17.577 19.7641 17.766 19.8856 17.901C20.0206 18.036 20.2096 18.0765 20.3851 18.0225L22.2751 17.4825L24.1516 18.036C24.2056 18.0495 24.2461 18.063 24.3001 18.063C24.4351 18.063 24.5566 18.009 24.6646 17.9145C24.7996 17.7795 24.8401 17.5905 24.7861 17.415L24.2326 15.525Z" fill="#F7C103"/>
<path d="M18.8324 23.625L19.386 21.7485C19.44 21.573 19.386 21.384 19.2645 21.249C19.1295 21.114 18.9405 21.0735 18.765 21.1275L16.8749 21.6675L14.9984 21.114C14.8229 21.06 14.6339 21.114 14.4989 21.2355C14.3639 21.3705 14.3234 21.5595 14.3774 21.735L14.9174 23.625L14.3639 25.5015C14.3099 25.677 14.3639 25.866 14.4854 26.001C14.6204 26.136 14.8094 26.1765 14.9849 26.1225L16.8614 25.569L18.738 26.1225C18.7785 26.136 18.8324 26.136 18.8864 26.136C19.0214 26.136 19.143 26.082 19.251 25.9875C19.386 25.8525 19.4265 25.6635 19.3724 25.488L18.8324 23.625Z" fill="#F7C103"/>
<path d="M39.0826 30.375L39.6361 28.4985C39.6901 28.323 39.6361 28.134 39.5146 27.999C39.3796 27.864 39.1906 27.8235 39.0151 27.8775L37.1386 28.431L35.2621 27.8775C35.0866 27.8235 34.8976 27.8775 34.7626 27.999C34.6276 28.134 34.5871 28.323 34.6411 28.4985L35.1946 30.375L34.6411 32.2515C34.5871 32.427 34.6411 32.616 34.7626 32.751C34.8976 32.886 35.0866 32.9265 35.2621 32.8725L37.1386 32.319L39.0151 32.8725C39.0556 32.886 39.1096 32.886 39.1636 32.886C39.2986 32.886 39.4201 32.832 39.5281 32.7375C39.6631 32.6025 39.7036 32.4135 39.6496 32.238L39.0826 30.375Z" fill="#F7C103"/>
</svg>
